# xmcd CD database file
#
# Track frame offsets:
#	150
#	22675
#	40643
#	54293
#	76946
#	97903
#	115560
#	134443
#	147343
#	169043
#
# Disc length: 2502 seconds
#
# Revision: 0
# Processed by: cddbd v1.5.2PL0 Copyright (c) Steve Scherf et al.
# Submitted via: CDex 1.70beta2
#
DISCID=6b09c40a
DTITLE=Franco Petrocca - Franco Petrocca and Quartiere Latino
DYEAR=1999
DGENRE=Jazz
TTITLE0=01-Latin Bop
TTITLE1=02-Alegria
TTITLE2=03-For Michel
TTITLE3=04-Mediterraneo
TTITLE4=05-Samba for Cajá
TTITLE5=06-Peace
TTITLE6=07-Chevere
TTITLE7=08-Waltz
TTITLE8=09-Bolero da Ilha
TTITLE9=10-Smile - Ricordi
EXTD=YEAR: 1999
EXTT0=
EXTT1=
EXTT2=
EXTT3=
EXTT4=
EXTT5=
EXTT6=
EXTT7=
EXTT8=
EXTT9=
PLAYORDER=
